<mxfile host="Electron" agent="Mozilla/5.0 (X11; Linux x86_64) AppleWebKit/537.36 (KHTML, like Gecko) draw.io/26.1.1 Chrome/132.0.6834.210 Electron/34.3.3 Safari/537.36" version="26.1.1" pages="3">
  <diagram name="generalGame" id="zxyIi315o1hcLQGaaBTK">
    <mxGraphModel dx="2245" dy="711" grid="1" gridSize="10" guides="1" tooltips="1" connect="1" arrows="1" fold="1" page="1" pageScale="1" pageWidth="850" pageHeight="1100" math="0" shadow="0">
      <root>
        <mxCell id="0" />
        <mxCell id="1" parent="0" />
        <mxCell id="EtJx6qnGCB4nfta1EFcl-1" value="MainMenu" style="ellipse;whiteSpace=wrap;html=1;" vertex="1" parent="1">
          <mxGeometry x="120" y="320" width="120" height="80" as="geometry" />
        </mxCell>
        <mxCell id="EtJx6qnGCB4nfta1EFcl-5" value="" style="endArrow=classic;html=1;rounded=0;exitX=1;exitY=0.5;exitDx=0;exitDy=0;" edge="1" parent="1" source="EtJx6qnGCB4nfta1EFcl-1" target="EtJx6qnGCB4nfta1EFcl-6">
          <mxGeometry width="50" height="50" relative="1" as="geometry">
            <mxPoint x="320" y="360" as="sourcePoint" />
            <mxPoint x="480" y="360" as="targetPoint" />
          </mxGeometry>
        </mxCell>
        <mxCell id="EtJx6qnGCB4nfta1EFcl-6" value="MainGame" style="ellipse;whiteSpace=wrap;html=1;" vertex="1" parent="1">
          <mxGeometry x="440" y="320" width="120" height="80" as="geometry" />
        </mxCell>
        <mxCell id="EtJx6qnGCB4nfta1EFcl-7" value="GameOver" style="ellipse;whiteSpace=wrap;html=1;" vertex="1" parent="1">
          <mxGeometry x="760" y="320" width="120" height="80" as="geometry" />
        </mxCell>
        <mxCell id="EtJx6qnGCB4nfta1EFcl-8" value="" style="endArrow=classic;html=1;rounded=0;entryX=0;entryY=0.5;entryDx=0;entryDy=0;exitX=1;exitY=0.5;exitDx=0;exitDy=0;" edge="1" parent="1" source="EtJx6qnGCB4nfta1EFcl-6" target="EtJx6qnGCB4nfta1EFcl-7">
          <mxGeometry width="50" height="50" relative="1" as="geometry">
            <mxPoint x="570" y="360" as="sourcePoint" />
            <mxPoint x="570" y="310" as="targetPoint" />
          </mxGeometry>
        </mxCell>
        <mxCell id="EtJx6qnGCB4nfta1EFcl-9" value="PauseScreen" style="ellipse;whiteSpace=wrap;html=1;" vertex="1" parent="1">
          <mxGeometry x="440" y="480" width="120" height="80" as="geometry" />
        </mxCell>
        <mxCell id="EtJx6qnGCB4nfta1EFcl-14" value="" style="curved=1;endArrow=classic;html=1;rounded=0;entryX=0.5;entryY=1;entryDx=0;entryDy=0;" edge="1" parent="1">
          <mxGeometry width="50" height="50" relative="1" as="geometry">
            <mxPoint x="499.71000000000004" y="480" as="sourcePoint" />
            <mxPoint x="499.71000000000004" y="400" as="targetPoint" />
            <Array as="points">
              <mxPoint x="470" y="440" />
            </Array>
          </mxGeometry>
        </mxCell>
        <mxCell id="EtJx6qnGCB4nfta1EFcl-16" value="" style="curved=1;endArrow=classic;html=1;rounded=0;entryX=0.5;entryY=1;entryDx=0;entryDy=0;" edge="1" parent="1">
          <mxGeometry width="50" height="50" relative="1" as="geometry">
            <mxPoint x="500" y="400" as="sourcePoint" />
            <mxPoint x="500" y="480" as="targetPoint" />
            <Array as="points">
              <mxPoint x="530.29" y="440" />
            </Array>
          </mxGeometry>
        </mxCell>
        <mxCell id="EtJx6qnGCB4nfta1EFcl-17" value="" style="curved=1;endArrow=classic;html=1;rounded=0;entryX=0.5;entryY=1;entryDx=0;entryDy=0;exitX=0;exitY=0.5;exitDx=0;exitDy=0;" edge="1" parent="1" source="EtJx6qnGCB4nfta1EFcl-9" target="EtJx6qnGCB4nfta1EFcl-1">
          <mxGeometry width="50" height="50" relative="1" as="geometry">
            <mxPoint x="290" y="410" as="sourcePoint" />
            <mxPoint x="150" y="530" as="targetPoint" />
            <Array as="points">
              <mxPoint x="290" y="520" />
              <mxPoint x="200" y="470" />
            </Array>
          </mxGeometry>
        </mxCell>
        <mxCell id="EtJx6qnGCB4nfta1EFcl-24" value="" style="endArrow=classic;html=1;rounded=0;entryX=0;entryY=0.5;entryDx=0;entryDy=0;" edge="1" parent="1" target="EtJx6qnGCB4nfta1EFcl-1">
          <mxGeometry relative="1" as="geometry">
            <mxPoint x="-40" y="360" as="sourcePoint" />
            <mxPoint x="80" y="360" as="targetPoint" />
          </mxGeometry>
        </mxCell>
        <mxCell id="EtJx6qnGCB4nfta1EFcl-26" value="* {&amp;nbsp;&lt;div&gt;consoleConfig();&lt;/div&gt;&lt;div&gt;mainState = MainMenu;&lt;/div&gt;&lt;div&gt;displayMainMenu();&lt;/div&gt;" style="edgeLabel;resizable=0;html=1;;align=left;verticalAlign=bottom;" connectable="0" vertex="1" parent="EtJx6qnGCB4nfta1EFcl-24">
          <mxGeometry x="-1" relative="1" as="geometry" />
        </mxCell>
        <mxCell id="EtJx6qnGCB4nfta1EFcl-28" value="&amp;nbsp;kTeclado: &amp;lt;Start&amp;gt; {&lt;br&gt;&lt;div&gt;&lt;span style=&quot;background-color: light-dark(#ffffff, var(--ge-dark-color, #121212)); color: light-dark(rgb(0, 0, 0), rgb(255, 255, 255));&quot;&gt;&amp;nbsp;mainState = MainGame;&lt;/span&gt;&amp;nbsp;&lt;div&gt;&amp;nbsp;runGame();&lt;/div&gt;&lt;/div&gt;" style="edgeLabel;resizable=0;html=1;;align=left;verticalAlign=bottom;" connectable="0" vertex="1" parent="1">
          <mxGeometry x="240" y="360" as="geometry" />
        </mxCell>
        <mxCell id="EtJx6qnGCB4nfta1EFcl-30" value="&amp;nbsp;gameOver() {&lt;div&gt;&amp;nbsp;mainState = GameOver;&lt;/div&gt;&lt;div&gt;&amp;nbsp;displayGameOverScreen();&lt;/div&gt;" style="edgeLabel;resizable=0;html=1;;align=left;verticalAlign=bottom;" connectable="0" vertex="1" parent="1">
          <mxGeometry x="560" y="360" as="geometry" />
        </mxCell>
        <mxCell id="EtJx6qnGCB4nfta1EFcl-32" value="" style="curved=1;endArrow=classic;html=1;rounded=0;entryX=0.5;entryY=0;entryDx=0;entryDy=0;exitX=0.5;exitY=0;exitDx=0;exitDy=0;" edge="1" parent="1" source="EtJx6qnGCB4nfta1EFcl-7">
          <mxGeometry width="50" height="50" relative="1" as="geometry">
            <mxPoint x="230" y="270" as="sourcePoint" />
            <mxPoint x="180" y="320" as="targetPoint" />
            <Array as="points">
              <mxPoint x="720" y="260" />
              <mxPoint x="500" y="230" />
              <mxPoint x="280" y="260" />
            </Array>
          </mxGeometry>
        </mxCell>
        <mxCell id="EtJx6qnGCB4nfta1EFcl-38" value="kTouch: botonSalir {&lt;div&gt;mainState = MainMenu;&lt;br&gt;&lt;div&gt;displayMainMenu();&lt;/div&gt;&lt;/div&gt;" style="edgeLabel;resizable=0;html=1;;align=right;verticalAlign=bottom;" connectable="0" vertex="1" parent="1">
          <mxGeometry x="430" y="570" as="geometry" />
        </mxCell>
        <mxCell id="EtJx6qnGCB4nfta1EFcl-39" value="&amp;nbsp;kTeclado: &amp;lt;Start&amp;gt; {&amp;nbsp;&lt;div&gt;&amp;nbsp;pauseGame();&lt;/div&gt;&lt;div&gt;&amp;nbsp;mainState = MainGame;&lt;br&gt;&lt;div&gt;&amp;nbsp;displayPauseMenu();&lt;/div&gt;&lt;/div&gt;" style="edgeLabel;resizable=0;html=1;;align=left;verticalAlign=bottom;" connectable="0" vertex="1" parent="1">
          <mxGeometry x="520" y="470" as="geometry" />
        </mxCell>
        <mxCell id="EtJx6qnGCB4nfta1EFcl-40" value="&lt;div style=&quot;&quot;&gt;&lt;span style=&quot;background-color: light-dark(#ffffff, var(--ge-dark-color, #121212)); color: light-dark(rgb(0, 0, 0), rgb(255, 255, 255));&quot;&gt;&amp;nbsp;kTeclado: &amp;lt;Start&amp;gt; || kTouch == returnButton; {&amp;nbsp;&lt;/span&gt;&lt;/div&gt;&lt;div&gt;&lt;div&gt;mainState = MainGame;&amp;nbsp;&lt;/div&gt;&lt;div&gt;&lt;span style=&quot;background-color: light-dark(#ffffff, var(--ge-dark-color, #121212)); color: light-dark(rgb(0, 0, 0), rgb(255, 255, 255));&quot;&gt;unPauseGame();&lt;/span&gt;&amp;nbsp;&lt;/div&gt;&lt;/div&gt;" style="edgeLabel;resizable=0;html=1;;align=right;verticalAlign=bottom;" connectable="0" vertex="1" parent="1">
          <mxGeometry x="480" y="460" as="geometry" />
        </mxCell>
      </root>
    </mxGraphModel>
  </diagram>
  <diagram id="NGmT_ZijC-BFzAwvfWjm" name="gameStates">
    <mxGraphModel dx="1154" dy="588" grid="1" gridSize="10" guides="1" tooltips="1" connect="1" arrows="1" fold="1" page="1" pageScale="1" pageWidth="850" pageHeight="1100" math="0" shadow="0">
      <root>
        <mxCell id="0" />
        <mxCell id="1" parent="0" />
        <mxCell id="blu09AwBweRZBHZFlEcV-1" value="GameMainState" style="ellipse;whiteSpace=wrap;html=1;" vertex="1" parent="1">
          <mxGeometry x="360" y="240" width="120" height="80" as="geometry" />
        </mxCell>
        <mxCell id="XSytRKQUrPGHD-s2LmWZ-1" value="" style="endArrow=classic;html=1;rounded=0;entryX=0;entryY=0.5;entryDx=0;entryDy=0;" edge="1" parent="1" target="blu09AwBweRZBHZFlEcV-1">
          <mxGeometry width="50" height="50" relative="1" as="geometry">
            <mxPoint x="80" y="280" as="sourcePoint" />
            <mxPoint x="160" y="280" as="targetPoint" />
          </mxGeometry>
        </mxCell>
        <mxCell id="XSytRKQUrPGHD-s2LmWZ-10" value="" style="curved=1;endArrow=classic;html=1;rounded=0;entryX=1;entryY=1;entryDx=0;entryDy=0;" edge="1" parent="1" target="blu09AwBweRZBHZFlEcV-1">
          <mxGeometry width="50" height="50" relative="1" as="geometry">
            <mxPoint x="460" y="250" as="sourcePoint" />
            <mxPoint x="510" y="200" as="targetPoint" />
            <Array as="points">
              <mxPoint x="520" y="240" />
              <mxPoint x="520" y="320" />
            </Array>
          </mxGeometry>
        </mxCell>
        <mxCell id="XSytRKQUrPGHD-s2LmWZ-11" value="&amp;nbsp;kTimer0: * {&lt;div&gt;&lt;div&gt;&amp;nbsp;for (int i = 0; i &amp;lt; 3; i++) {&lt;/div&gt;&lt;div&gt;&amp;nbsp; &amp;nbsp; if (alarmTask[i] + 30 == tick) {&lt;/div&gt;&lt;div&gt;&amp;nbsp; &amp;nbsp; &amp;nbsp; &amp;nbsp; gameOver();&lt;/div&gt;&lt;div&gt;&amp;nbsp; &amp;nbsp; } else if (alarmTask[i]) {&lt;/div&gt;&lt;div&gt;&amp;nbsp; &amp;nbsp; &amp;nbsp; &amp;nbsp; enableTask[i]();&lt;/div&gt;&lt;div&gt;&lt;span style=&quot;white-space: pre;&quot;&gt;&#x9;&lt;/span&gt;updateStatusDisplay();&lt;br&gt;&lt;/div&gt;&lt;div&gt;&amp;nbsp; &amp;nbsp; }&lt;/div&gt;&lt;div&gt;&amp;nbsp;}&lt;/div&gt;&lt;div&gt;&amp;nbsp;tick++;&lt;/div&gt;&lt;/div&gt;" style="edgeLabel;resizable=0;html=1;;align=left;verticalAlign=bottom;" connectable="0" vertex="1" parent="1">
          <mxGeometry x="520" y="340" as="geometry" />
        </mxCell>
        <mxCell id="XSytRKQUrPGHD-s2LmWZ-12" value="&amp;nbsp;runGame() {&amp;nbsp;&lt;div&gt;&amp;nbsp;startTimer0();&lt;/div&gt;&lt;div&gt;&lt;span style=&quot;background-color: light-dark(#ffffff, var(--ge-dark-color, #121212)); color: light-dark(rgb(0, 0, 0), rgb(255, 255, 255));&quot;&gt;&amp;nbsp;for (int i = 0; i &amp;lt; 3; i++) {&lt;/span&gt;&lt;/div&gt;&lt;div&gt;&lt;span style=&quot;background-color: light-dark(#ffffff, var(--ge-dark-color, #121212)); color: light-dark(rgb(0, 0, 0), rgb(255, 255, 255));&quot;&gt;&amp;nbsp; &amp;nbsp; // Definimos cúando se van a ejecutar&amp;nbsp;&lt;/span&gt;&lt;/div&gt;&lt;div&gt;&lt;span style=&quot;background-color: light-dark(#ffffff, var(--ge-dark-color, #121212)); color: light-dark(rgb(0, 0, 0), rgb(255, 255, 255));&quot;&gt;&amp;nbsp; &amp;nbsp; // las averías aleatoriamente.&lt;/span&gt;&lt;/div&gt;&lt;div&gt;&lt;span style=&quot;background-color: light-dark(#ffffff, var(--ge-dark-color, #121212)); color: light-dark(rgb(0, 0, 0), rgb(255, 255, 255));&quot;&gt;&amp;nbsp; &amp;nbsp; alarmTask[i] = randomTime();&lt;/span&gt;&lt;/div&gt;&lt;div&gt;&lt;span style=&quot;background-color: light-dark(#ffffff, var(--ge-dark-color, #121212)); color: light-dark(rgb(0, 0, 0), rgb(255, 255, 255));&quot;&gt;&amp;nbsp;}&lt;/span&gt;&lt;/div&gt;&lt;div&gt;&lt;span style=&quot;background-color: light-dark(#ffffff, var(--ge-dark-color, #121212)); color: light-dark(rgb(0, 0, 0), rgb(255, 255, 255));&quot;&gt;&amp;nbsp;// swiWaitForVBlank();&lt;/span&gt;&lt;/div&gt;&lt;div&gt;&lt;span style=&quot;background-color: light-dark(#ffffff, var(--ge-dark-color, #121212)); color: light-dark(rgb(0, 0, 0), rgb(255, 255, 255));&quot;&gt;&amp;nbsp;drawSpritesDisplay0(); // Pantalla de arriba.&lt;/span&gt;&lt;/div&gt;&lt;div&gt;&lt;span style=&quot;background-color: light-dark(#ffffff, var(--ge-dark-color, #121212)); color: light-dark(rgb(0, 0, 0), rgb(255, 255, 255));&quot;&gt;&amp;nbsp;drawStatusDisplay1(); // Pantalla de abajo.&lt;/span&gt;&lt;/div&gt;&lt;div&gt;&lt;span style=&quot;background-color: light-dark(#ffffff, var(--ge-dark-color, #121212)); color: light-dark(rgb(0, 0, 0), rgb(255, 255, 255));&quot;&gt;&amp;nbsp;gameState = GameMainState;&lt;/span&gt;&lt;/div&gt;" style="edgeLabel;resizable=0;html=1;;align=left;verticalAlign=bottom;" connectable="0" vertex="1" parent="1">
          <mxGeometry x="80" y="280" as="geometry" />
        </mxCell>
        <mxCell id="XSytRKQUrPGHD-s2LmWZ-13" value="&lt;i&gt;gameTask[i]();&lt;/i&gt;" style="ellipse;whiteSpace=wrap;html=1;" vertex="1" parent="1">
          <mxGeometry x="360" y="480" width="120" height="80" as="geometry" />
        </mxCell>
        <mxCell id="seliBbz7rJaBYooGDCk5-5" value="" style="curved=1;endArrow=classic;html=1;rounded=0;entryX=0.5;entryY=1;entryDx=0;entryDy=0;" edge="1" parent="1">
          <mxGeometry width="50" height="50" relative="1" as="geometry">
            <mxPoint x="420" y="480" as="sourcePoint" />
            <mxPoint x="419.71000000000004" y="320" as="targetPoint" />
            <Array as="points">
              <mxPoint x="380" y="400" />
            </Array>
          </mxGeometry>
        </mxCell>
        <mxCell id="seliBbz7rJaBYooGDCk5-6" value="" style="curved=1;endArrow=classic;html=1;rounded=0;" edge="1" parent="1">
          <mxGeometry width="50" height="50" relative="1" as="geometry">
            <mxPoint x="420" y="320" as="sourcePoint" />
            <mxPoint x="420" y="480" as="targetPoint" />
            <Array as="points">
              <mxPoint x="460" y="400" />
            </Array>
          </mxGeometry>
        </mxCell>
        <mxCell id="seliBbz7rJaBYooGDCk5-7" value="&amp;nbsp;kTeclado: &amp;lt;A&amp;gt; &amp;amp;&amp;amp; isInTaskArea() {&lt;div&gt;&amp;nbsp;task = getWhatTask(); // Conseguimos la tarea de la que se trata.&lt;/div&gt;&lt;div&gt;&amp;nbsp;if (taskEnabled(task)) {&lt;/div&gt;&lt;div&gt;&amp;nbsp; &amp;nbsp; &amp;nbsp;&lt;span style=&quot;background-color: light-dark(#ffffff, var(--ge-dark-color, #121212)); color: light-dark(rgb(0, 0, 0), rgb(255, 255, 255));&quot;&gt;// Ahora no actualizamos la pantalla superior.&lt;/span&gt;&lt;div&gt;&lt;div&gt;&lt;div&gt;&lt;div&gt;&amp;nbsp; &amp;nbsp; &amp;nbsp;gameState = gameTask[i];&lt;/div&gt;&lt;/div&gt;&lt;/div&gt;&lt;/div&gt;&lt;div&gt;&amp;nbsp; &amp;nbsp; &amp;nbsp;gameTask[i]();&lt;/div&gt;&lt;/div&gt;&lt;div&gt;&amp;nbsp;}&lt;/div&gt;" style="edgeLabel;resizable=0;html=1;;align=left;verticalAlign=bottom;" connectable="0" vertex="1" parent="1">
          <mxGeometry x="440" y="450" as="geometry" />
        </mxCell>
        <mxCell id="seliBbz7rJaBYooGDCk5-8" value="&lt;div style=&quot;&quot;&gt;&lt;span style=&quot;background-color: light-dark(#ffffff, var(--ge-dark-color, #121212)); color: light-dark(rgb(0, 0, 0), rgb(255, 255, 255));&quot;&gt;&amp;nbsp;returnToMainGame(i) {&amp;nbsp;&lt;/span&gt;&lt;/div&gt;&lt;div style=&quot;&quot;&gt;&lt;span style=&quot;background-color: light-dark(#ffffff, var(--ge-dark-color, #121212)); color: light-dark(rgb(0, 0, 0), rgb(255, 255, 255));&quot;&gt;alarmTask[i] += randomTime();&amp;nbsp;&lt;/span&gt;&lt;/div&gt;&lt;div style=&quot;&quot;&gt;&lt;span style=&quot;background-color: light-dark(#ffffff, var(--ge-dark-color, #121212)); color: light-dark(rgb(0, 0, 0), rgb(255, 255, 255));&quot;&gt;swiWaitForVBlank();&amp;nbsp;&lt;/span&gt;&lt;/div&gt;&lt;div style=&quot;&quot;&gt;&lt;span style=&quot;background-color: light-dark(#ffffff, var(--ge-dark-color, #121212)); color: light-dark(rgb(0, 0, 0), rgb(255, 255, 255));&quot;&gt;drawStatusDisplay1();&amp;nbsp;&lt;/span&gt;&lt;/div&gt;&lt;div&gt;&lt;div&gt;mainState = mainGame;&amp;nbsp;&lt;/div&gt;&lt;/div&gt;" style="edgeLabel;resizable=0;html=1;;align=right;verticalAlign=bottom;" connectable="0" vertex="1" parent="1">
          <mxGeometry x="399" y="430" as="geometry" />
        </mxCell>
        <mxCell id="NDE_2UZop8xKR_Niis8G-1" value="" style="curved=1;endArrow=classic;html=1;rounded=0;exitX=0.333;exitY=0;exitDx=0;exitDy=0;exitPerimeter=0;" edge="1" parent="1">
          <mxGeometry width="50" height="50" relative="1" as="geometry">
            <mxPoint x="399.96000000000004" y="242" as="sourcePoint" />
            <mxPoint x="440" y="242" as="targetPoint" />
            <Array as="points">
              <mxPoint x="390" y="210" />
              <mxPoint x="420" y="190" />
              <mxPoint x="450" y="210" />
            </Array>
          </mxGeometry>
        </mxCell>
        <mxCell id="NDE_2UZop8xKR_Niis8G-3" value="&amp;nbsp;* {&lt;div&gt;&amp;nbsp;if (teclasDetectada()) {&lt;/div&gt;&lt;div&gt;&amp;nbsp; &amp;nbsp; &amp;nbsp;teclas = teclasPulsadas();&lt;/div&gt;&lt;div&gt;&amp;nbsp; &amp;nbsp; &amp;nbsp;updateSprite(); // Actualiza la posición del sprite en función de la posición.&lt;/div&gt;&lt;div&gt;&amp;nbsp; &amp;nbsp; &amp;nbsp;// swiWaitForVBlank();&lt;/div&gt;&lt;div&gt;&amp;nbsp; &amp;nbsp; &amp;nbsp;drawSpritesDisplay0();&lt;/div&gt;&lt;div&gt;&amp;nbsp; &amp;nbsp; &amp;nbsp;drawStatusDisplay1();&lt;/div&gt;&lt;div&gt;&amp;nbsp;} else {&lt;/div&gt;&lt;div&gt;&amp;nbsp; &amp;nbsp; &amp;nbsp;// swiWaitForVBlank();&lt;/div&gt;&lt;div&gt;&amp;nbsp; &amp;nbsp; &amp;nbsp;drawStatusDisplay1();&lt;/div&gt;&lt;div&gt;}&lt;/div&gt;&lt;div&gt;&lt;br&gt;&lt;/div&gt;" style="edgeLabel;resizable=0;html=1;;align=left;verticalAlign=bottom;" connectable="0" vertex="1" parent="1">
          <mxGeometry x="350" y="190" as="geometry" />
        </mxCell>
      </root>
    </mxGraphModel>
  </diagram>
  <diagram id="cP-cV-tnlcwX4gm3xHHN" name="gameTask[i]">
    <mxGraphModel dx="1154" dy="588" grid="1" gridSize="10" guides="1" tooltips="1" connect="1" arrows="1" fold="1" page="1" pageScale="1" pageWidth="850" pageHeight="1100" math="0" shadow="0">
      <root>
        <mxCell id="0" />
        <mxCell id="1" parent="0" />
        <mxCell id="E8V2vzPBHBVKGgEugVAa-1" value="Start" style="ellipse;whiteSpace=wrap;html=1;" vertex="1" parent="1">
          <mxGeometry x="280" y="142" width="120" height="80" as="geometry" />
        </mxCell>
        <mxCell id="E8V2vzPBHBVKGgEugVAa-2" value="" style="endArrow=classic;html=1;rounded=0;" edge="1" parent="1">
          <mxGeometry width="50" height="50" relative="1" as="geometry">
            <mxPoint x="80" y="182" as="sourcePoint" />
            <mxPoint x="280" y="182" as="targetPoint" />
          </mxGeometry>
        </mxCell>
        <mxCell id="9rQDK9NY_y-j8kSzK-WJ-1" value="&amp;nbsp;gameTask[&lt;i&gt;i&lt;/i&gt;]() {&amp;nbsp;&lt;div&gt;&amp;nbsp;intTickCount = 0;&lt;/div&gt;&lt;div&gt;&amp;nbsp;drawTaskDisplay1(taskImage[&lt;i&gt;i&lt;/i&gt;]);&lt;br&gt;&lt;div&gt;&lt;span style=&quot;background-color: light-dark(#ffffff, var(--ge-dark-color, #121212)); color: light-dark(rgb(0, 0, 0), rgb(255, 255, 255));&quot;&gt;&amp;nbsp;gameTaskState = Start;&lt;/span&gt;&lt;/div&gt;&lt;/div&gt;" style="edgeLabel;resizable=0;html=1;;align=left;verticalAlign=bottom;" connectable="0" vertex="1" parent="1">
          <mxGeometry x="80" y="182" as="geometry">
            <mxPoint x="-1" y="1" as="offset" />
          </mxGeometry>
        </mxCell>
        <mxCell id="riIU-8HPUR82Bs1i_vGB-1" value="Success" style="ellipse;whiteSpace=wrap;html=1;" vertex="1" parent="1">
          <mxGeometry x="280" y="400" width="120" height="80" as="geometry" />
        </mxCell>
        <mxCell id="riIU-8HPUR82Bs1i_vGB-2" value="GameOver" style="ellipse;whiteSpace=wrap;html=1;" vertex="1" parent="1">
          <mxGeometry x="560" y="142" width="120" height="80" as="geometry" />
        </mxCell>
        <mxCell id="riIU-8HPUR82Bs1i_vGB-4" value="" style="endArrow=classic;html=1;rounded=0;entryX=0;entryY=0.5;entryDx=0;entryDy=0;" edge="1" parent="1" target="riIU-8HPUR82Bs1i_vGB-2">
          <mxGeometry width="50" height="50" relative="1" as="geometry">
            <mxPoint x="400" y="182" as="sourcePoint" />
            <mxPoint x="555" y="182" as="targetPoint" />
          </mxGeometry>
        </mxCell>
        <mxCell id="riIU-8HPUR82Bs1i_vGB-5" value="&amp;nbsp;kTimer0: intTickCount &amp;gt;= 30 {&lt;div&gt;&amp;nbsp;gameTaskState = GameOver;&lt;/div&gt;&lt;div&gt;&lt;i&gt;&amp;nbsp;gameOver();&lt;/i&gt;&lt;/div&gt;" style="edgeLabel;resizable=0;html=1;;align=left;verticalAlign=bottom;" connectable="0" vertex="1" parent="1">
          <mxGeometry x="400" y="182" as="geometry" />
        </mxCell>
        <mxCell id="8-RZMhPODXwN5rzCXVHP-1" value="" style="curved=1;endArrow=classic;html=1;rounded=0;exitX=0.333;exitY=0;exitDx=0;exitDy=0;exitPerimeter=0;" edge="1" parent="1">
          <mxGeometry width="50" height="50" relative="1" as="geometry">
            <mxPoint x="319.96000000000004" y="144" as="sourcePoint" />
            <mxPoint x="360" y="144" as="targetPoint" />
            <Array as="points">
              <mxPoint x="310" y="112" />
              <mxPoint x="340" y="92" />
              <mxPoint x="370" y="112" />
            </Array>
          </mxGeometry>
        </mxCell>
        <mxCell id="8-RZMhPODXwN5rzCXVHP-2" value="&lt;span style=&quot;color: rgb(0, 0, 0); font-family: Helvetica; font-size: 11px; font-style: normal; font-variant-ligatures: normal; font-variant-caps: normal; font-weight: 400; letter-spacing: normal; orphans: 2; text-align: left; text-indent: 0px; text-transform: none; widows: 2; word-spacing: 0px; -webkit-text-stroke-width: 0px; white-space: nowrap; background-color: rgb(255, 255, 255); text-decoration-thickness: initial; text-decoration-style: initial; text-decoration-color: initial; display: inline !important; float: none;&quot;&gt;kTimer0: * {&lt;/span&gt;&lt;div&gt;intTickCount++;&lt;/div&gt;" style="text;whiteSpace=wrap;html=1;" vertex="1" parent="1">
          <mxGeometry x="295" y="60" width="90" height="40" as="geometry" />
        </mxCell>
        <mxCell id="8-RZMhPODXwN5rzCXVHP-3" value="" style="endArrow=classic;html=1;rounded=0;entryX=0.5;entryY=0;entryDx=0;entryDy=0;" edge="1" parent="1" target="riIU-8HPUR82Bs1i_vGB-1">
          <mxGeometry width="50" height="50" relative="1" as="geometry">
            <mxPoint x="340" y="222" as="sourcePoint" />
            <mxPoint x="390" y="172" as="targetPoint" />
          </mxGeometry>
        </mxCell>
        <mxCell id="8-RZMhPODXwN5rzCXVHP-4" value="&amp;nbsp;kTouch: * {&lt;div&gt;&amp;nbsp;&lt;i&gt;#extends lenght(array) (*(&amp;amp;array + 1) - array)&lt;/i&gt;&lt;/div&gt;&lt;div&gt;&lt;i&gt;&amp;nbsp;&lt;/i&gt;// Los puntos en la pantalla a tocar están en &lt;i&gt;pointToTouch[i]&lt;/i&gt;&lt;/div&gt;&lt;div&gt;&lt;i&gt;&amp;nbsp;&lt;/i&gt;int max = length(pointToTouch[i])&lt;/div&gt;&lt;div&gt;&lt;span style=&quot;background-color: light-dark(#ffffff, var(--ge-dark-color, #121212)); color: light-dark(rgb(0, 0, 0), rgb(255, 255, 255));&quot;&gt;&amp;nbsp;int i = 0;&lt;/span&gt;&lt;/div&gt;&lt;div&gt;&lt;span style=&quot;background-color: light-dark(#ffffff, var(--ge-dark-color, #121212)); color: light-dark(rgb(0, 0, 0), rgb(255, 255, 255));&quot;&gt;&amp;nbsp;do {&lt;/span&gt;&lt;/div&gt;&lt;div&gt;&lt;span style=&quot;background-color: light-dark(#ffffff, var(--ge-dark-color, #121212)); color: light-dark(rgb(0, 0, 0), rgb(255, 255, 255));&quot;&gt;&amp;nbsp; &amp;nbsp; if (pressedOnHitbox(touchRead(&amp;amp;posPantalla))) {&lt;/span&gt;&lt;/div&gt;&lt;div&gt;&lt;span style=&quot;background-color: light-dark(#ffffff, var(--ge-dark-color, #121212)); color: light-dark(rgb(0, 0, 0), rgb(255, 255, 255));&quot;&gt;&amp;nbsp; &amp;nbsp; &amp;nbsp; &amp;nbsp;i++;&lt;/span&gt;&lt;/div&gt;&lt;div&gt;&lt;span style=&quot;background-color: light-dark(#ffffff, var(--ge-dark-color, #121212)); color: light-dark(rgb(0, 0, 0), rgb(255, 255, 255));&quot;&gt;&amp;nbsp; &amp;nbsp; }&lt;/span&gt;&lt;/div&gt;&lt;div&gt;&lt;span style=&quot;background-color: light-dark(#ffffff, var(--ge-dark-color, #121212)); color: light-dark(rgb(0, 0, 0), rgb(255, 255, 255));&quot;&gt;&amp;nbsp;} (i &amp;lt;= max);&lt;/span&gt;&lt;/div&gt;&lt;div&gt;&lt;span style=&quot;background-color: light-dark(#ffffff, var(--ge-dark-color, #121212)); color: light-dark(rgb(0, 0, 0), rgb(255, 255, 255));&quot;&gt;&amp;nbsp;gameTaskState = Success;&lt;/span&gt;&lt;/div&gt;&lt;div&gt;&lt;span style=&quot;background-color: light-dark(#ffffff, var(--ge-dark-color, #121212)); color: light-dark(rgb(0, 0, 0), rgb(255, 255, 255));&quot;&gt;&amp;nbsp;&lt;i&gt;returnToMainGame(i);&lt;/i&gt;&lt;/span&gt;&lt;/div&gt;&lt;div&gt;&lt;span style=&quot;background-color: light-dark(#ffffff, var(--ge-dark-color, #121212)); color: light-dark(rgb(0, 0, 0), rgb(255, 255, 255));&quot;&gt;&amp;nbsp;&lt;/span&gt;&lt;/div&gt;" style="edgeLabel;resizable=0;html=1;;align=left;verticalAlign=bottom;" connectable="0" vertex="1" parent="1">
          <mxGeometry x="340" y="400" as="geometry" />
        </mxCell>
      </root>
    </mxGraphModel>
  </diagram>
</mxfile>
